<svg width="1727" height="1084" viewBox="0 0 1727 1084" fill="none" xmlns="http://www.w3.org/2000/svg">
<path d="M235.442 742.884C265.415 383.628 354.65 -227.108 471.808 204C618.256 742.884 760.531 572.61 826.546 388.305C892.562 204 925.949 5.28379 1081.88 246.473C1237.81 487.663 1328.11 572.231 1375.16 298.428C1422.2 24.6245 1658.95 492.214 1724.96 846.792" stroke="url(#paint0_radial_373_62)" stroke-width="4.14229"/>
<path d="M1.96557 634.291C115.153 292.001 344.792 -280.945 357.847 165.594C374.166 723.768 552.331 591.469 659.633 427.704C766.935 263.939 845.885 78.5358 941.07 349.485C1036.26 620.435 1104.26 723.764 1214.06 468.548C1323.86 213.332 1444.65 723.292 1425.88 1083.47" stroke="url(#paint1_radial_373_62)" stroke-width="4.14229"/>
<path d="M224.321 737.686C258.256 379.238 354.177 -229.698 466.378 202.144C606.629 741.946 750.613 573.481 818.595 390.154C886.576 206.827 922.133 8.74495 1075.17 251.352C1228.21 493.958 1317.45 579.42 1367.48 306.502C1417.52 33.5835 1648.74 503.19 1710.72 858.036" stroke="url(#paint2_radial_373_62)" stroke-width="4.14229"/>
<path d="M213.211 732.49C251.109 374.85 353.716 -232.286 460.96 200.291C595.014 741.012 740.707 574.355 810.655 392.006C880.602 209.657 918.329 12.2087 1068.48 256.233C1218.62 500.256 1306.8 586.611 1359.82 314.578C1412.84 42.5451 1638.54 514.17 1696.48 869.282" stroke="url(#paint3_radial_373_62)" stroke-width="4.14229"/>
<path d="M202.094 727.297C243.954 370.465 353.247 -234.872 455.533 198.44C583.392 740.08 730.793 575.231 802.707 393.86C874.621 212.489 914.517 15.6752 1061.77 261.116C1209.03 506.557 1296.14 593.805 1352.15 322.657C1408.16 51.5095 1628.34 525.152 1682.24 880.53" stroke="url(#paint4_radial_373_62)" stroke-width="4.14229"/>
<path d="M190.969 722.107C236.792 366.083 352.77 -237.454 450.099 196.592C571.761 739.15 720.872 576.11 794.751 395.717C868.631 215.324 910.697 19.1443 1055.06 266.002C1199.42 512.86 1285.47 601.002 1344.47 330.739C1403.47 60.4765 1618.13 536.136 1667.99 891.782" stroke="url(#paint5_radial_373_62)" stroke-width="4.14229"/>
<path d="M179.859 716.92C229.645 361.703 352.309 -240.034 444.681 194.747C560.146 738.224 710.966 576.992 786.812 397.577C862.657 218.162 906.893 22.6162 1048.36 270.891C1189.83 519.166 1274.82 608.201 1336.81 338.824C1398.79 69.4462 1607.93 547.124 1653.76 903.036" stroke="url(#paint6_radial_373_62)" stroke-width="4.14229"/>
<path d="M168.734 711.734C222.482 357.325 351.832 -242.613 439.247 192.903C548.515 737.299 701.044 577.875 778.856 399.438C856.668 221.002 903.073 26.0897 1041.65 275.782C1180.23 525.474 1264.15 615.403 1329.13 346.91C1394.1 78.4176 1597.72 558.113 1639.51 914.291" stroke="url(#paint7_radial_373_62)" stroke-width="4.14229"/>
<path d="M157.617 706.553C215.328 352.952 351.364 -245.186 433.821 191.065C536.893 736.378 691.131 578.763 770.908 401.305C850.686 223.846 899.261 29.5679 1034.94 280.677C1170.63 531.787 1253.5 622.608 1321.46 355.001C1389.42 87.3937 1587.51 569.106 1625.27 925.552" stroke="url(#paint8_radial_373_62)" stroke-width="4.14229"/>
<path d="M146.499 701.373C208.173 348.58 350.895 -247.759 428.395 189.227C525.27 735.459 681.217 579.652 762.961 403.172C844.705 226.691 895.449 33.0469 1028.24 285.573C1161.03 538.1 1242.84 629.815 1313.79 363.093C1384.74 96.3705 1577.31 580.101 1611.03 936.813" stroke="url(#paint9_radial_373_62)" stroke-width="4.14229"/>
<path d="M135.378 696.196C201.014 344.211 350.422 -250.329 422.965 187.392C513.643 734.543 671.299 580.545 755.009 405.042C838.719 229.54 891.633 36.5296 1021.53 290.473C1151.43 544.417 1232.17 637.025 1306.11 371.188C1380.05 105.351 1567.1 591.099 1596.78 948.078" stroke="url(#paint10_radial_373_62)" stroke-width="4.14229"/>
<path d="M124.261 691.022C193.859 339.845 349.953 -252.895 417.539 185.561C502.02 733.63 661.386 581.44 747.061 406.916C832.737 232.391 887.821 40.015 1014.83 295.376C1141.83 550.737 1221.52 644.238 1298.44 379.286C1375.37 114.334 1556.9 602.1 1582.54 959.346" stroke="url(#paint11_radial_373_62)" stroke-width="4.14229"/>
<path d="M113.151 685.85C186.712 335.481 349.492 -255.46 412.12 183.731C490.405 732.719 651.48 582.337 739.122 408.791C826.764 235.245 884.017 43.5021 1008.13 300.28C1132.24 557.058 1210.86 651.453 1290.78 387.386C1370.69 123.319 1546.7 613.103 1568.31 970.615" stroke="url(#paint12_radial_373_62)" stroke-width="4.14229"/>
<path d="M102.034 680.683C179.558 331.121 349.023 -258.02 406.694 181.906C478.783 731.812 641.566 583.239 731.174 410.671C820.782 238.102 880.205 46.994 1001.42 305.189C1122.64 563.384 1200.21 658.673 1283.11 395.491C1366.01 132.309 1536.5 624.11 1554.07 981.889" stroke="url(#paint13_radial_373_62)" stroke-width="4.14229"/>
<path d="M90.9085 675.517C172.395 326.764 348.546 -260.578 401.26 180.082C467.152 730.907 631.644 584.142 723.218 412.552C814.792 240.962 876.385 50.4877 994.712 310.1C1113.04 569.712 1189.54 665.894 1275.43 403.597C1361.32 141.301 1526.29 635.12 1539.82 993.165" stroke="url(#paint14_radial_373_62)" stroke-width="4.14229"/>
<path d="M79.799 670.353C165.248 322.408 348.085 -263.134 395.842 178.261C455.537 730.004 621.739 585.047 715.279 414.436C808.819 243.824 872.581 53.9831 988.015 315.013C1103.45 576.042 1178.89 673.117 1267.77 411.706C1356.65 150.294 1516.09 646.131 1525.58 1004.44" stroke="url(#paint15_radial_373_62)" stroke-width="4.14229"/>
<path d="M68.6738 665.194C158.085 318.057 347.609 -265.686 390.408 176.444C443.907 729.106 611.817 585.957 707.323 416.324C802.829 246.69 868.761 57.4833 981.303 319.93C1093.84 582.376 1168.22 680.345 1260.09 419.819C1351.96 159.292 1505.88 657.147 1511.33 1015.72" stroke="url(#paint16_radial_373_62)" stroke-width="4.14229"/>
<path d="M57.5564 660.036C150.931 313.706 347.14 -268.237 384.982 174.628C432.284 728.209 601.903 586.868 699.375 418.213C796.847 249.557 864.949 60.9844 974.598 324.848C1084.25 588.712 1157.56 687.574 1252.42 427.932C1347.27 168.291 1495.67 668.163 1497.09 1027.01" stroke="url(#paint17_radial_373_62)" stroke-width="4.14229"/>
<path d="M46.439 654.882C143.776 309.36 346.671 -270.784 379.555 172.816C420.661 727.315 591.99 587.783 691.428 420.105C790.866 252.428 861.137 64.4892 967.893 329.77C1074.65 595.051 1146.9 694.806 1244.75 436.05C1342.59 177.294 1485.47 679.183 1482.85 1038.3" stroke="url(#paint18_radial_373_62)" stroke-width="4.14229"/>
<path d="M35.3177 649.729C136.617 305.015 346.198 -273.329 374.125 171.005C409.034 726.423 582.072 588.7 683.476 422C784.88 255.301 857.321 67.9959 961.184 334.694C1065.05 601.392 1136.24 702.041 1237.07 444.169C1337.9 186.298 1475.26 690.206 1468.61 1049.58" stroke="url(#paint19_radial_373_62)" stroke-width="4.14229"/>
<path d="M24.2003 644.58C129.462 300.674 345.729 -275.87 368.699 169.199C397.412 725.535 572.158 589.62 675.528 423.899C778.899 258.177 853.509 71.5064 954.48 339.621C1055.45 607.737 1125.58 709.279 1229.4 452.293C1333.22 195.307 1465.06 701.232 1454.36 1060.88" stroke="url(#paint20_radial_373_62)" stroke-width="4.14229"/>
<path d="M13.0829 639.434C122.308 296.336 345.26 -278.409 363.273 167.395C385.789 724.65 562.244 590.543 667.581 425.8C772.917 261.056 849.697 75.0197 947.775 344.552C1045.85 614.084 1114.92 716.52 1221.73 460.419C1328.54 204.318 1454.85 712.261 1440.12 1072.17" stroke="url(#paint21_radial_373_62)" stroke-width="4.14229"/>
<defs>
<radialGradient id="paint0_radial_373_62" cx="0" cy="0" r="1" gradientUnits="userSpaceOnUse" gradientTransform="translate(980.203 451.258) rotate(90) scale(395.535 744.761)">
<stop offset="0.394231" stop-color="#FCCF50"/>
<stop offset="0.658654" stop-color="#FF87AB"/>
</radialGradient>
<radialGradient id="paint1_radial_373_62" cx="0" cy="0" r="1" gradientUnits="userSpaceOnUse" gradientTransform="translate(714.894 542.771) rotate(90) scale(540.699 712.928)">
<stop offset="0.394231" stop-color="#FCCF50"/>
<stop offset="0.658654" stop-color="#FF87AB"/>
</radialGradient>
<radialGradient id="paint2_radial_373_62" cx="0" cy="0" r="1" gradientUnits="userSpaceOnUse" gradientTransform="translate(967.52 455.602) rotate(90) scale(402.434 743.199)">
<stop offset="0.394231" stop-color="#FCCF50"/>
<stop offset="0.658654" stop-color="#FF87AB"/>
</radialGradient>
<radialGradient id="paint3_radial_373_62" cx="0" cy="0" r="1" gradientUnits="userSpaceOnUse" gradientTransform="translate(954.848 459.948) rotate(90) scale(409.334 741.636)">
<stop offset="0.394231" stop-color="#FCCF50"/>
<stop offset="0.658654" stop-color="#FF87AB"/>
</radialGradient>
<radialGradient id="paint4_radial_373_62" cx="0" cy="0" r="1" gradientUnits="userSpaceOnUse" gradientTransform="translate(942.169 464.295) rotate(90) scale(416.236 740.074)">
<stop offset="0.394231" stop-color="#FCCF50"/>
<stop offset="0.658654" stop-color="#FF87AB"/>
</radialGradient>
<radialGradient id="paint5_radial_373_62" cx="0" cy="0" r="1" gradientUnits="userSpaceOnUse" gradientTransform="translate(929.481 468.643) rotate(90) scale(423.139 738.512)">
<stop offset="0.394231" stop-color="#FCCF50"/>
<stop offset="0.658654" stop-color="#FF87AB"/>
</radialGradient>
<radialGradient id="paint6_radial_373_62" cx="0" cy="0" r="1" gradientUnits="userSpaceOnUse" gradientTransform="translate(916.81 472.993) rotate(90) scale(430.043 736.95)">
<stop offset="0.394231" stop-color="#FCCF50"/>
<stop offset="0.658654" stop-color="#FF87AB"/>
</radialGradient>
<radialGradient id="paint7_radial_373_62" cx="0" cy="0" r="1" gradientUnits="userSpaceOnUse" gradientTransform="translate(904.122 477.343) rotate(90) scale(436.949 735.388)">
<stop offset="0.394231" stop-color="#FCCF50"/>
<stop offset="0.658654" stop-color="#FF87AB"/>
</radialGradient>
<radialGradient id="paint8_radial_373_62" cx="0" cy="0" r="1" gradientUnits="userSpaceOnUse" gradientTransform="translate(891.443 481.696) rotate(90) scale(443.856 733.826)">
<stop offset="0.394231" stop-color="#FCCF50"/>
<stop offset="0.658654" stop-color="#FF87AB"/>
</radialGradient>
<radialGradient id="paint9_radial_373_62" cx="0" cy="0" r="1" gradientUnits="userSpaceOnUse" gradientTransform="translate(878.764 486.049) rotate(90) scale(450.764 732.264)">
<stop offset="0.394231" stop-color="#FCCF50"/>
<stop offset="0.658654" stop-color="#FF87AB"/>
</radialGradient>
<radialGradient id="paint10_radial_373_62" cx="0" cy="0" r="1" gradientUnits="userSpaceOnUse" gradientTransform="translate(866.08 490.404) rotate(90) scale(457.674 730.702)">
<stop offset="0.394231" stop-color="#FCCF50"/>
<stop offset="0.658654" stop-color="#FF87AB"/>
</radialGradient>
<radialGradient id="paint11_radial_373_62" cx="0" cy="0" r="1" gradientUnits="userSpaceOnUse" gradientTransform="translate(853.401 494.76) rotate(90) scale(464.585 729.14)">
<stop offset="0.394231" stop-color="#FCCF50"/>
<stop offset="0.658654" stop-color="#FF87AB"/>
</radialGradient>
<radialGradient id="paint12_radial_373_62" cx="0" cy="0" r="1" gradientUnits="userSpaceOnUse" gradientTransform="translate(840.729 499.117) rotate(90) scale(471.498 727.578)">
<stop offset="0.394231" stop-color="#FCCF50"/>
<stop offset="0.658654" stop-color="#FF87AB"/>
</radialGradient>
<radialGradient id="paint13_radial_373_62" cx="0" cy="0" r="1" gradientUnits="userSpaceOnUse" gradientTransform="translate(828.05 503.477) rotate(90) scale(478.412 726.016)">
<stop offset="0.394231" stop-color="#FCCF50"/>
<stop offset="0.658654" stop-color="#FF87AB"/>
</radialGradient>
<radialGradient id="paint14_radial_373_62" cx="0" cy="0" r="1" gradientUnits="userSpaceOnUse" gradientTransform="translate(815.363 507.838) rotate(90) scale(485.327 724.454)">
<stop offset="0.394231" stop-color="#FCCF50"/>
<stop offset="0.658654" stop-color="#FF87AB"/>
</radialGradient>
<radialGradient id="paint15_radial_373_62" cx="0" cy="0" r="1" gradientUnits="userSpaceOnUse" gradientTransform="translate(802.691 512.199) rotate(90) scale(492.243 722.892)">
<stop offset="0.394231" stop-color="#FCCF50"/>
<stop offset="0.658654" stop-color="#FF87AB"/>
</radialGradient>
<radialGradient id="paint16_radial_373_62" cx="0" cy="0" r="1" gradientUnits="userSpaceOnUse" gradientTransform="translate(790.004 516.563) rotate(90) scale(499.162 721.33)">
<stop offset="0.394231" stop-color="#FCCF50"/>
<stop offset="0.658654" stop-color="#FF87AB"/>
</radialGradient>
<radialGradient id="paint17_radial_373_62" cx="0" cy="0" r="1" gradientUnits="userSpaceOnUse" gradientTransform="translate(777.324 520.927) rotate(90) scale(506.081 719.768)">
<stop offset="0.394231" stop-color="#FCCF50"/>
<stop offset="0.658654" stop-color="#FF87AB"/>
</radialGradient>
<radialGradient id="paint18_radial_373_62" cx="0" cy="0" r="1" gradientUnits="userSpaceOnUse" gradientTransform="translate(764.663 525.293) rotate(90) scale(513.002 718.224)">
<stop offset="0.394231" stop-color="#FCCF50"/>
<stop offset="0.658654" stop-color="#FF87AB"/>
</radialGradient>
<radialGradient id="paint19_radial_373_62" cx="0" cy="0" r="1" gradientUnits="userSpaceOnUse" gradientTransform="translate(752.078 529.66) rotate(90) scale(519.924 716.761)">
<stop offset="0.394231" stop-color="#FCCF50"/>
<stop offset="0.658654" stop-color="#FF87AB"/>
</radialGradient>
<radialGradient id="paint20_radial_373_62" cx="0" cy="0" r="1" gradientUnits="userSpaceOnUse" gradientTransform="translate(739.588 534.029) rotate(90) scale(526.848 715.387)">
<stop offset="0.394231" stop-color="#FCCF50"/>
<stop offset="0.658654" stop-color="#FF87AB"/>
</radialGradient>
<radialGradient id="paint21_radial_373_62" cx="0" cy="0" r="1" gradientUnits="userSpaceOnUse" gradientTransform="translate(727.192 538.4) rotate(90) scale(533.773 714.109)">
<stop offset="0.394231" stop-color="#FCCF50"/>
<stop offset="0.658654" stop-color="#FF87AB"/>
</radialGradient>
</defs>
</svg>
